<svg width="344" height="336" viewBox="0 0 344 336" fill="none" xmlns="http://www.w3.org/2000/svg">
<path d="M105.886 120.06C107.596 115.96 113.404 115.96 115.114 120.06L139.464 178.419C140.023 179.76 141.139 180.792 142.519 181.245L206.524 202.249C211.112 203.755 211.112 210.245 206.524 211.751L142.519 232.755C141.139 233.208 140.023 234.24 139.464 235.581L115.114 293.94C113.404 298.04 107.596 298.04 105.886 293.94L81.5361 235.581C80.9766 234.24 79.8614 233.208 78.4807 232.755L14.4762 211.751C9.88827 210.245 9.88828 203.755 14.4762 202.249L78.4807 181.245C79.8614 180.792 80.9766 179.76 81.5361 178.419L105.886 120.06Z" fill="#E4721C"/>
<circle cx="239.5" cy="101.5" r="101.5" fill="#E4721C"/>
<path d="M284.851 238.894C284.909 238.646 285.013 238.418 285.155 238.226C285.297 238.035 285.473 237.885 285.67 237.789L292.587 234.434C292.865 234.3 293.172 234.279 293.461 234.374C293.751 234.469 294.007 234.675 294.192 234.961L301.254 245.976C303.137 248.922 304.161 252.542 304.167 256.269V296.397C304.167 296.617 304.131 296.835 304.062 297.039C303.992 297.243 303.89 297.428 303.762 297.583C303.633 297.739 303.481 297.863 303.313 297.947C303.145 298.031 302.965 298.075 302.783 298.075H294.483C294.302 298.075 294.122 298.031 293.954 297.947C293.786 297.863 293.633 297.739 293.505 297.583C293.376 297.428 293.275 297.243 293.205 297.039C293.136 296.835 293.1 296.617 293.1 296.397V256.686C293.097 254.508 292.515 252.39 291.44 250.646L285.077 240.354C284.95 240.148 284.863 239.909 284.824 239.656C284.785 239.403 284.794 239.142 284.851 238.894Z" fill="#FFD07B"/>
<path d="M245.26 231.837C251.189 226.287 258.387 223.097 265.868 222.703L271.681 222.387C271.904 222.375 272.125 222.428 272.327 222.542C272.528 222.656 272.705 222.827 272.84 223.041L284.649 241.66C284.784 241.874 284.875 242.124 284.914 242.39C284.952 242.655 284.938 242.928 284.872 243.185L283.128 249.918C280.894 258.589 276.505 266.209 270.561 271.736C270.27 272.007 269.903 272.127 269.539 272.069C269.175 272.011 268.845 271.781 268.621 271.428L245.006 234.19C244.783 233.837 244.684 233.391 244.732 232.949C244.779 232.508 244.969 232.108 245.26 231.837Z" fill="#FFD07B"/>
<path d="M245.26 231.837C246.646 230.542 249.324 229.793 254.187 233.593C258.145 236.898 261.626 240.971 264.49 245.65C270.622 255.319 274.834 267.748 270.561 271.736C269.777 272.449 268.817 272.819 267.837 272.786C265.592 272.581 263.441 271.608 261.635 269.98C257.676 266.677 254.195 262.604 251.331 257.924C245.199 248.254 240.987 235.823 245.26 231.837Z" fill="#EFAA5E"/>
<path d="M281.359 217.207L282.456 216.185C284.201 214.557 286.408 213.837 288.591 214.183C290.774 214.528 292.754 215.912 294.096 218.028C295.438 220.145 296.031 222.821 295.746 225.469C295.461 228.117 294.321 230.519 292.576 232.146L291.479 233.169C291.188 233.44 290.82 233.56 290.456 233.502C290.093 233.444 289.763 233.213 289.539 232.861L281.105 219.56C280.882 219.207 280.783 218.761 280.831 218.32C280.879 217.879 281.069 217.479 281.359 217.207Z" fill="#FFD07B"/>
<path d="M291.717 292.1H305.55C306.283 292.101 306.987 292.455 307.505 293.085C308.024 293.714 308.316 294.566 308.317 295.456V303.846C308.317 304.066 308.281 304.284 308.212 304.488C308.142 304.692 308.04 304.877 307.912 305.032C307.783 305.188 307.631 305.312 307.463 305.396C307.295 305.48 307.115 305.524 306.933 305.524H290.333C290.152 305.524 289.972 305.48 289.804 305.396C289.636 305.312 289.483 305.188 289.355 305.032C289.226 304.877 289.125 304.692 289.055 304.488C288.986 304.284 288.95 304.066 288.95 303.846V295.456C288.951 294.566 289.243 293.714 289.761 293.085C290.28 292.455 290.983 292.101 291.717 292.1Z" fill="#EFAA5E"/>
<path d="M243.3 271.965C243.482 271.966 243.662 271.922 243.829 271.838C243.997 271.754 244.15 271.63 244.278 271.474L248.428 266.44C248.558 266.285 248.662 266.1 248.733 265.896C248.804 265.691 248.841 265.472 248.842 265.251C248.843 265.029 248.807 264.809 248.738 264.605C248.668 264.4 248.566 264.213 248.437 264.057C248.308 263.9 248.154 263.776 247.985 263.692C247.816 263.607 247.635 263.564 247.453 263.565C247.27 263.566 247.089 263.611 246.921 263.697C246.753 263.784 246.6 263.909 246.472 264.067L242.322 269.101C242.129 269.336 241.997 269.635 241.944 269.96C241.89 270.286 241.918 270.623 242.022 270.93C242.127 271.236 242.304 271.498 242.532 271.683C242.759 271.867 243.026 271.965 243.3 271.965Z" fill="#FFD07B"/>
<path d="M252.983 280.355C253.165 280.355 253.345 280.312 253.513 280.228C253.681 280.143 253.833 280.02 253.962 279.864C254.09 279.708 254.192 279.523 254.262 279.319C254.331 279.116 254.367 278.897 254.367 278.677V270.288C254.367 269.843 254.221 269.416 253.961 269.101C253.702 268.786 253.35 268.61 252.983 268.61C252.616 268.61 252.265 268.786 252.005 269.101C251.746 269.416 251.6 269.843 251.6 270.288V278.677C251.6 278.897 251.636 279.116 251.705 279.319C251.775 279.523 251.876 279.708 252.005 279.864C252.133 280.02 252.286 280.143 252.454 280.228C252.622 280.312 252.802 280.355 252.983 280.355Z" fill="#FFD07B"/>
<path d="M236.383 260.22H243.3C243.667 260.22 244.019 260.043 244.278 259.729C244.538 259.414 244.683 258.987 244.683 258.542C244.683 258.097 244.538 257.67 244.278 257.356C244.019 257.041 243.667 256.864 243.3 256.864H236.383C236.016 256.864 235.665 257.041 235.405 257.356C235.146 257.67 235 258.097 235 258.542C235 258.987 235.146 259.414 235.405 259.729C235.665 260.043 236.016 260.22 236.383 260.22Z" fill="#FFD07B"/>
<path d="M265.433 292.1C267.267 292.103 269.025 292.988 270.322 294.56C271.618 296.133 272.348 298.266 272.35 300.49V303.846C272.35 304.066 272.314 304.284 272.245 304.488C272.175 304.692 272.074 304.877 271.945 305.032C271.817 305.188 271.664 305.312 271.496 305.396C271.328 305.48 271.148 305.524 270.967 305.524H259.9C259.718 305.524 259.538 305.48 259.37 305.396C259.203 305.312 259.05 305.188 258.922 305.032C258.793 304.877 258.691 304.692 258.622 304.488C258.552 304.284 258.517 304.066 258.517 303.846V300.49C258.519 298.266 259.248 296.133 260.545 294.56C261.842 292.988 263.6 292.103 265.433 292.1Z" fill="#EFAA5E"/>
<path d="M268.978 220.035C269.047 219.379 269.223 218.746 269.495 218.173C269.767 217.6 270.13 217.098 270.563 216.696L274.949 212.604C275.822 211.793 276.925 211.434 278.016 211.606C279.107 211.779 280.097 212.469 280.769 213.525L294.263 234.806C294.932 235.865 295.228 237.202 295.086 238.525C294.944 239.849 294.375 241.049 293.504 241.865L289.117 245.956C288.244 246.768 287.142 247.127 286.051 246.954C284.96 246.782 283.97 246.092 283.298 245.035L269.804 223.755C269.47 223.232 269.225 222.634 269.084 221.996C268.942 221.357 268.906 220.691 268.978 220.035Z" fill="#EFAA5E"/>
<path d="M256.041 242.022C256.719 240.46 257.729 239.146 258.965 238.215C260.967 240.511 262.815 242.997 264.49 245.65C266.177 248.309 267.684 251.129 268.995 254.083C267.815 255.405 266.341 256.278 264.755 256.594C263.234 256.904 261.672 256.693 260.244 255.984C258.817 255.276 257.58 254.098 256.675 252.584C255.769 251.069 255.23 249.278 255.118 247.412C255.006 245.547 255.325 243.68 256.041 242.022Z" fill="#D68345"/>
<path d="M255.75 302.168H308.317C310.15 302.17 311.908 303.055 313.205 304.628C314.502 306.201 315.231 308.333 315.233 310.557V317.269C315.233 317.489 315.198 317.708 315.128 317.911C315.059 318.115 314.957 318.3 314.828 318.456C314.7 318.611 314.547 318.735 314.38 318.819C314.212 318.904 314.032 318.947 313.85 318.947H250.217C250.035 318.947 249.855 318.904 249.687 318.819C249.519 318.735 249.367 318.611 249.238 318.456C249.11 318.3 249.008 318.115 248.938 317.911C248.869 317.708 248.833 317.489 248.833 317.269V310.557C248.835 308.333 249.565 306.201 250.862 304.628C252.158 303.055 253.916 302.17 255.75 302.168Z" fill="#FFD07B"/>
<path d="M247.45 318.947H316.617C316.984 318.947 317.335 318.77 317.595 318.455C317.854 318.141 318 317.714 318 317.269C318 316.824 317.854 316.397 317.595 316.083C317.335 315.768 316.984 315.591 316.617 315.591H247.45C247.083 315.591 246.731 315.768 246.472 316.083C246.212 316.397 246.067 316.824 246.067 317.269C246.067 317.714 246.212 318.141 246.472 318.455C246.731 318.77 247.083 318.947 247.45 318.947Z" fill="#EFAA5E"/>
<path d="M310.663 146.409C313.445 147.597 316.278 148.711 319.189 148.716C325.088 148.824 330.406 144.65 332.456 139.259C340.241 118.801 324.438 99.9898 318.021 96.2683C307.912 90.4102 299.478 98.3589 298.65 107.935C298.195 112.349 298.975 117.272 302.142 120.506C305.962 124.301 310.795 121.954 309.658 116.76C307.887 109.75 299.824 105.316 292.91 106.526C289.517 107.056 286.681 109.095 284.037 111.174" stroke="#FFCD6C" stroke-width="4" stroke-miterlimit="10" stroke-linecap="round"/>
<path d="M256.305 196.773C254.795 196.772 253.347 196.105 252.279 194.92C251.212 193.736 250.611 192.129 250.609 190.454V165.879C250.609 165.556 250.71 165.244 250.893 164.993C251.076 164.743 251.331 164.571 251.616 164.505C251.9 164.439 252.197 164.483 252.455 164.631C252.713 164.779 252.918 165.021 253.034 165.317L261.132 185.856C261.706 187.305 262.002 188.871 262 190.454C261.998 192.129 261.398 193.736 260.33 194.92C259.262 196.105 257.815 196.772 256.305 196.773ZM253.141 172.593V190.454C253.141 191.385 253.474 192.278 254.067 192.936C254.661 193.595 255.466 193.965 256.305 193.965C257.144 193.965 257.949 193.595 258.542 192.936C259.135 192.278 259.469 191.385 259.469 190.454C259.47 189.258 259.247 188.075 258.814 186.98L253.141 172.593Z" fill="#B38DDB"/>
<path d="M241.75 139.197H229.094C226.409 139.201 223.836 140.385 221.938 142.491C220.04 144.598 218.972 147.453 218.969 150.432V158.857C218.969 159.042 219.001 159.224 219.065 159.395C219.128 159.565 219.222 159.72 219.339 159.851C219.457 159.981 219.596 160.084 219.75 160.155C219.904 160.226 220.068 160.262 220.234 160.262H250.609C250.776 160.262 250.94 160.226 251.094 160.155C251.247 160.084 251.387 159.981 251.505 159.851C251.622 159.72 251.715 159.565 251.779 159.395C251.842 159.224 251.875 159.042 251.875 158.857V150.432C251.872 147.453 250.804 144.598 248.906 142.491C247.008 140.385 244.434 139.201 241.75 139.197Z" fill="#EFA554"/>
<path d="M251.875 157.453H218.969C218.803 157.453 218.638 157.489 218.484 157.56C218.331 157.63 218.191 157.734 218.074 157.864C217.956 157.995 217.863 158.149 217.799 158.32C217.736 158.49 217.703 158.673 217.703 158.857V220.646C217.704 221.763 218.105 222.834 218.816 223.624C219.528 224.414 220.493 224.858 221.5 224.859H249.344C250.35 224.858 251.316 224.414 252.027 223.624C252.739 222.834 253.14 221.763 253.141 220.646V158.857C253.141 158.673 253.108 158.49 253.044 158.32C252.981 158.149 252.888 157.995 252.77 157.864C252.653 157.734 252.513 157.63 252.359 157.56C252.206 157.489 252.041 157.453 251.875 157.453Z" fill="#DBEDFF"/>
<path d="M251.875 157.453H218.969C218.633 157.453 218.311 157.601 218.074 157.864C217.836 158.128 217.703 158.485 217.703 158.857V167.283H253.141V158.857C253.141 158.485 253.007 158.128 252.77 157.864C252.533 157.601 252.211 157.453 251.875 157.453Z" fill="#FFD07B"/>
<path d="M236.391 202.892C236.272 202.735 236.124 202.609 235.957 202.522C235.789 202.435 235.607 202.39 235.422 202.391H184.797C184.612 202.391 184.43 202.436 184.262 202.522C184.095 202.609 183.946 202.736 183.828 202.893C183.709 203.05 183.623 203.234 183.575 203.432C183.527 203.63 183.519 203.837 183.551 204.039L186.978 225.592C187.132 226.567 187.592 227.452 188.276 228.088C188.96 228.725 189.824 229.073 190.717 229.072H229.502C230.394 229.073 231.259 228.725 231.943 228.088C232.627 227.452 233.086 226.567 233.24 225.592L236.668 204.039C236.7 203.837 236.692 203.63 236.644 203.432C236.596 203.233 236.51 203.049 236.391 202.892Z" fill="#FFD07B"/>
<path d="M236.607 194.877L233.735 186.374C233.37 185.306 232.721 184.386 231.874 183.735C231.028 183.084 230.023 182.734 228.994 182.73H191.225C190.195 182.734 189.191 183.085 188.344 183.735C187.497 184.386 186.849 185.307 186.484 186.375L183.612 194.877C183.54 195.089 183.516 195.318 183.541 195.543C183.566 195.768 183.64 195.983 183.757 196.169C183.873 196.356 184.029 196.508 184.21 196.613C184.391 196.718 184.592 196.773 184.797 196.773H235.422C235.626 196.773 235.828 196.718 236.009 196.613C236.19 196.508 236.346 196.356 236.462 196.169C236.579 195.983 236.653 195.768 236.678 195.543C236.703 195.318 236.679 195.089 236.607 194.877Z" fill="#FFD07B"/>
<path d="M236.687 193.965H183.531C182.133 193.965 181 195.222 181 196.773V202.39C181 203.942 182.133 205.199 183.531 205.199H236.687C238.085 205.199 239.219 203.942 239.219 202.39V196.773C239.219 195.222 238.085 193.965 236.687 193.965Z" fill="#F9BC64"/>
<path d="M222.766 193.965H197.453V209.412C197.453 210.529 197.853 211.601 198.565 212.391C199.277 213.181 200.243 213.625 201.25 213.625H218.969C219.976 213.625 220.941 213.181 221.654 212.391C222.366 211.601 222.766 210.529 222.766 209.412V193.965Z" fill="#EFA554"/>
<path d="M215.172 205.199H205.047C204.711 205.199 204.389 205.051 204.152 204.788C203.915 204.524 203.781 204.167 203.781 203.795C203.781 203.422 203.915 203.065 204.152 202.802C204.389 202.538 204.711 202.391 205.047 202.391H215.172C215.508 202.391 215.829 202.538 216.067 202.802C216.304 203.065 216.437 203.422 216.437 203.795C216.437 204.167 216.304 204.524 216.067 204.788C215.829 205.051 215.508 205.199 215.172 205.199Z" fill="#D68345"/>
<path d="M137.193 297.522L124.135 300.324C123.846 300.386 123.545 300.331 123.297 300.172C123.05 300.012 122.876 299.761 122.814 299.473C122.752 299.186 122.808 298.885 122.968 298.638C123.129 298.391 123.381 298.217 123.669 298.155L136.727 295.353C137.016 295.291 137.317 295.346 137.565 295.506C137.812 295.665 137.986 295.917 138.048 296.204C138.11 296.492 138.054 296.792 137.894 297.04C137.733 297.287 137.481 297.46 137.193 297.522Z" fill="#D68345"/>
<path d="M131.362 302.177C131.219 302.208 131.072 302.211 130.928 302.184C130.784 302.158 130.647 302.104 130.524 302.025C130.402 301.946 130.296 301.844 130.213 301.724C130.13 301.604 130.072 301.469 130.041 301.326L128.645 294.818C128.583 294.531 128.638 294.23 128.799 293.983C128.959 293.736 129.211 293.562 129.5 293.5C129.789 293.438 130.09 293.493 130.338 293.653C130.585 293.812 130.759 294.064 130.821 294.351L132.217 300.859C132.248 301.002 132.25 301.149 132.224 301.292C132.197 301.436 132.143 301.572 132.063 301.695C131.984 301.817 131.881 301.923 131.761 302.006C131.641 302.088 131.505 302.147 131.362 302.177Z" fill="#EFAA5E"/>
<path d="M136.948 328.21C155.578 324.212 169.795 316.843 168.702 311.752C167.609 306.66 151.621 305.773 132.991 309.77C114.362 313.768 100.145 321.137 101.238 326.229C102.331 331.321 118.319 332.208 136.948 328.21Z" fill="#DBEDFF"/>
<path d="M154.278 316.451C154.038 316.503 153.789 316.474 153.568 316.369C153.346 316.264 153.166 316.09 153.055 315.873L144.446 299.088C144.379 298.959 144.339 298.817 144.327 298.672C144.315 298.527 144.332 298.38 144.377 298.241C144.422 298.103 144.494 297.974 144.589 297.863C144.683 297.752 144.799 297.66 144.929 297.594C145.06 297.527 145.202 297.487 145.348 297.475C145.493 297.463 145.64 297.48 145.779 297.525C145.918 297.57 146.047 297.642 146.158 297.736C146.269 297.831 146.361 297.946 146.427 298.076L155.037 314.86C155.114 315.012 155.156 315.179 155.158 315.349C155.161 315.519 155.124 315.688 155.05 315.842C154.977 315.996 154.869 316.131 154.735 316.236C154.601 316.342 154.445 316.416 154.278 316.451Z" fill="#D68345"/>
<path d="M126.136 273.231C126.038 273.123 125.92 273.035 125.788 272.973C125.656 272.911 125.513 272.875 125.367 272.868L118.699 272.537C118.553 272.529 118.407 272.55 118.27 272.599C118.132 272.648 118.005 272.724 117.896 272.821C117.788 272.919 117.7 273.037 117.637 273.169C117.574 273.301 117.539 273.444 117.531 273.59L115.316 316.808C115.308 316.953 115.33 317.099 115.379 317.236C115.428 317.373 115.503 317.499 115.601 317.607C115.699 317.715 115.817 317.803 115.949 317.866C116.081 317.928 116.224 317.964 116.37 317.971C117.392 318.022 118.414 317.872 119.378 317.529C120.342 317.186 121.229 316.658 121.988 315.973C122.748 315.289 123.365 314.462 123.804 313.54C124.243 312.618 124.495 311.619 124.547 310.601L126.421 274.031C126.436 273.737 126.334 273.45 126.136 273.231Z" fill="#EFAA5E"/>
<path d="M113.287 291.152C111.813 291.08 110.371 291.595 109.276 292.582C108.181 293.57 107.523 294.949 107.446 296.419L106.423 316.369C106.413 316.562 106.454 316.755 106.542 316.928L110.596 324.896C110.685 325.07 110.818 325.218 110.983 325.324C111.147 325.43 111.337 325.491 111.533 325.501C111.629 325.506 111.727 325.498 111.822 325.478C111.965 325.447 112.101 325.388 112.222 325.304C112.343 325.221 112.446 325.114 112.525 324.991L117.364 317.463C117.468 317.3 117.528 317.113 117.538 316.92L118.562 296.965C118.601 296.237 118.496 295.509 118.251 294.822C118.007 294.135 117.629 293.503 117.139 292.963C116.649 292.422 116.056 291.984 115.395 291.674C114.734 291.363 114.017 291.186 113.287 291.152Z" fill="#D68345"/>
<path d="M110.596 324.896C110.685 325.071 110.818 325.218 110.983 325.324C111.147 325.431 111.337 325.491 111.533 325.501C111.63 325.506 111.727 325.498 111.822 325.478C111.965 325.447 112.101 325.388 112.222 325.304C112.343 325.221 112.446 325.114 112.525 324.991L117.364 317.463C117.468 317.3 117.528 317.113 117.538 316.92L117.538 316.918L106.423 316.366L106.423 316.369C106.413 316.563 106.454 316.755 106.542 316.928L110.596 324.896Z" fill="#FFD07B"/>
<path d="M151.998 308.936L132.246 270.432C132.18 270.302 132.089 270.187 131.977 270.092C131.866 269.998 131.737 269.926 131.598 269.881C131.459 269.837 131.313 269.82 131.167 269.832C131.021 269.844 130.879 269.884 130.749 269.951L124.804 272.989C124.674 273.055 124.558 273.146 124.463 273.257C124.368 273.368 124.296 273.497 124.251 273.636C124.206 273.774 124.189 273.92 124.201 274.066C124.213 274.211 124.253 274.352 124.32 274.482L141.033 307.063C141.498 307.971 142.138 308.778 142.917 309.439C143.696 310.099 144.597 310.6 145.571 310.913C146.544 311.225 147.57 311.344 148.59 311.261C149.609 311.178 150.603 310.895 151.514 310.429C151.644 310.363 151.76 310.272 151.854 310.161C151.949 310.05 152.021 309.921 152.066 309.782C152.111 309.644 152.128 309.498 152.117 309.352C152.105 309.207 152.065 309.066 151.998 308.936Z" fill="#EFAA5E"/>
<path d="M122.052 258.79C120.898 259.039 119.89 259.734 119.248 260.723C118.607 261.711 118.385 262.912 118.63 264.063L119.794 269.486C119.824 269.629 119.883 269.764 119.966 269.884C120.049 270.004 120.155 270.106 120.277 270.185C120.4 270.264 120.537 270.318 120.681 270.344C120.824 270.371 120.972 270.368 121.115 270.338L127.644 268.937C127.787 268.906 127.922 268.848 128.042 268.765C128.163 268.682 128.266 268.576 128.345 268.454C128.425 268.331 128.479 268.195 128.505 268.051C128.532 267.908 128.53 267.761 128.499 267.618L127.335 262.195C127.087 261.045 126.392 260.04 125.401 259.402C124.41 258.764 123.206 258.544 122.052 258.79Z" fill="#EFAA5E"/>
<path d="M127.405 283.738C132.814 282.577 136.26 277.266 135.103 271.874C133.947 266.483 128.624 263.053 123.215 264.214C117.807 265.374 114.36 270.686 115.517 276.077C116.674 281.469 121.997 284.899 127.405 283.738Z" fill="#FFD07B"/>
<path d="M126.241 278.314C128.645 277.799 130.177 275.438 129.663 273.042C129.149 270.646 126.783 269.121 124.379 269.637C121.975 270.153 120.444 272.514 120.958 274.91C121.472 277.306 123.837 278.83 126.241 278.314Z" fill="#EFAA5E"/>
<path d="M107.335 298.635L106.88 307.501L117.993 308.053L118.447 299.187L107.335 298.635Z" fill="#FFD07B"/>
<path d="M148.871 293.088C148.47 292.307 147.846 291.662 147.077 291.235C146.308 290.807 145.429 290.617 144.551 290.689C143.673 290.76 142.836 291.089 142.145 291.634C141.454 292.18 140.94 292.917 140.669 293.753C140.398 294.589 140.382 295.486 140.622 296.33C140.863 297.175 141.349 297.929 142.019 298.497C142.69 299.066 143.515 299.423 144.389 299.524C145.264 299.624 146.15 299.464 146.934 299.063C147.984 298.525 148.778 297.594 149.141 296.474C149.504 295.353 149.407 294.136 148.871 293.088Z" fill="#D68345"/>
</svg>
