<svg width="605" height="196" viewBox="0 0 605 196" fill="none" xmlns="http://www.w3.org/2000/svg">
<mask id="mask0_142_9" style="mask-type:luminance" maskUnits="userSpaceOnUse" x="372" y="0" width="214" height="120">
<path d="M372 0L579.61 0L585.391 119.28L377.782 119.28L372 0Z" fill="white"/>
</mask>
<g mask="url(#mask0_142_9)">
<path d="M549.673 51.6208H537.263C537.263 51.6208 536.378 34.4387 519.296 28.8153C505.556 24.2977 494.969 28.9874 494.969 28.9874C487.126 12.038 469.097 -0.000732422 448.635 -0.000732422C421.99 -0.000732422 401.372 20.3678 402.59 45.5067C402.696 47.6984 403.021 49.8476 403.442 51.9586C387.343 53.6402 375.225 66.5256 375.986 82.2171L376.282 88.331C377.098 105.158 392.364 118.928 410.204 118.928L552.936 118.928C570.778 118.928 584.707 105.159 583.891 88.331L583.595 82.2171C582.779 65.3851 567.515 51.6208 549.673 51.6208Z" fill="#F3F3F3"/>
</g>
<mask id="mask1_142_9" style="mask-type:luminance" maskUnits="userSpaceOnUse" x="391" y="22" width="214" height="120">
<path d="M391.584 22.72L599.193 22.72L605 142H397.39L391.584 22.72Z" fill="white"/>
</mask>
<g mask="url(#mask1_142_9)">
<path d="M569.268 74.3408H556.857C556.857 74.3408 555.969 57.1586 538.886 51.5352C525.144 47.0176 514.559 51.7073 514.559 51.7073C506.712 34.758 488.68 22.7192 468.218 22.7192C441.573 22.7192 420.96 43.0878 422.183 68.2266C422.29 70.4184 422.615 72.5676 423.037 74.6786C406.938 76.3601 394.823 89.2456 395.587 104.937L395.884 111.051C396.704 127.878 411.972 141.648 429.812 141.648L572.544 141.648C590.386 141.648 604.312 127.879 603.493 111.051L603.196 104.937C602.376 88.1051 587.11 74.3408 569.268 74.3408Z" fill="#96BFFF"/>
</g>
<path d="M47.9975 146.323C49.817 142.556 55.183 142.556 57.0025 146.323L61.9215 156.509C62.5429 157.796 63.6852 158.755 65.06 159.145L74.0341 161.69C78.8822 163.064 78.8822 169.936 74.0341 171.31L65.06 173.855C63.6852 174.245 62.5429 175.204 61.9215 176.491L57.0025 186.677C55.183 190.444 49.817 190.444 47.9975 186.677L43.0785 176.491C42.4571 175.204 41.3148 174.245 39.94 173.855L30.9659 171.31C26.1178 169.936 26.1178 163.064 30.9659 161.69L39.94 159.145C41.3148 158.755 42.4571 157.796 43.0785 156.509L47.9975 146.323Z" fill="#FFCD6C"/>
<path d="M16.897 130.521C16.2591 128.831 18.0118 127.228 19.6385 128.014L27.7466 131.933C28.2713 132.186 28.8804 132.198 29.4148 131.966L37.7309 128.348C39.4774 127.588 41.1968 129.468 40.2843 131.14L35.9391 139.1C35.6599 139.612 35.6177 140.22 35.8235 140.765L39.0034 149.19C39.6414 150.88 37.8887 152.483 36.262 151.697L28.1539 147.778C27.6292 147.525 27.02 147.513 26.4857 147.745L18.1695 151.363C16.4231 152.123 14.7036 150.243 15.6161 148.571L19.9613 140.611C20.2405 140.099 20.2828 139.491 20.077 138.946L16.897 130.521Z" fill="#FE7EFE"/>
</svg>
