<svg width="1311" height="447" viewBox="0 0 1311 447" fill="none" xmlns="http://www.w3.org/2000/svg">
<path d="M843.998 73.3243C845.817 69.5568 851.183 69.5568 853.002 73.3243L857.921 83.5101C858.543 84.7969 859.685 85.7564 861.06 86.1462L870.034 88.6906C874.882 90.0652 874.882 96.9368 870.034 98.3114L861.06 100.856C859.685 101.246 858.543 102.205 857.921 103.492L853.002 113.678C851.183 117.445 845.817 117.445 843.998 113.678L839.079 103.492C838.457 102.205 837.315 101.246 835.94 100.856L826.966 98.3114C822.118 96.9368 822.118 90.0652 826.966 88.6906L835.94 86.1462C837.315 85.7564 838.457 84.7969 839.079 83.5101L843.998 73.3243Z" fill="#FFCD6C"/>
<path d="M77.5827 181.889C81.9365 175.356 91.5362 175.356 95.89 181.889L132.185 236.354C137.057 243.664 131.816 253.454 123.032 253.454H50.4411C41.6564 253.454 36.4159 243.664 41.2875 236.354L77.5827 181.889Z" fill="#02C978"/>
<path d="M120.968 194.641C128.694 194.486 134.041 202.136 130.773 208.67L100.136 269.91C96.7512 276.677 86.7323 277.166 82.2708 270.783L40.4886 211C36.0271 204.616 40.5478 196.26 48.5499 196.099L120.968 194.641Z" fill="#02C978"/>
<ellipse cx="36.7658" cy="35.5728" rx="36.7658" ry="35.5728" transform="matrix(0.925957 0.37763 -0.470479 0.882411 1213.94 172.331)" fill="#02B1FF"/>
<path d="M1224.03 225.479C1227.31 223.488 1231.49 225.194 1231.85 228.669L1240.64 313.214C1241.02 316.949 1236.76 319.883 1233.11 318.394L1144.63 282.309C1140.98 280.82 1140.81 276.08 1144.33 273.94L1224.03 225.479Z" fill="#02B1FF"/>
<ellipse cx="170.427" cy="51.1024" rx="16.4096" ry="15.3103" transform="rotate(20.5799 170.427 51.1024)" fill="#FFCD6C"/>
<ellipse cx="194.568" cy="60.1666" rx="16.4096" ry="15.3103" transform="rotate(20.5799 194.568 60.1666)" fill="#FFCD6C"/>
<ellipse cx="218.709" cy="69.231" rx="16.4096" ry="15.3103" transform="rotate(20.5799 218.709 69.231)" fill="#FFCD6C"/>
<ellipse cx="161.97" cy="73.6261" rx="16.4096" ry="15.3103" transform="rotate(20.5799 161.97 73.6261)" fill="#FFCD6C"/>
<ellipse cx="186.111" cy="82.6903" rx="16.4096" ry="15.3103" transform="rotate(20.5799 186.111 82.6903)" fill="#FFCD6C"/>
<ellipse cx="210.252" cy="91.7545" rx="16.4096" ry="15.3103" transform="rotate(20.5799 210.252 91.7545)" fill="#FFCD6C"/>
<ellipse cx="152.744" cy="98.1971" rx="16.4096" ry="15.3103" transform="rotate(20.5799 152.744 98.1971)" fill="#FFCD6C"/>
<ellipse cx="176.885" cy="107.262" rx="16.4096" ry="15.3103" transform="rotate(20.5799 176.885 107.262)" fill="#FFCD6C"/>
<ellipse cx="201.026" cy="116.326" rx="16.4096" ry="15.3103" transform="rotate(20.5799 201.026 116.326)" fill="#FFCD6C"/>
<path d="M272 638.52C272 632.603 273.019 612.978 274.939 594.731C277.085 574.331 300.955 525.152 315.161 500.746C325.972 482.173 346.363 480.491 358.138 480.609C372.84 480.757 381.003 495.616 390.668 507.743C399.821 519.227 404.587 546.942 409.255 568.943C410.521 574.91 410.987 589.756 411.119 607.143C411.158 612.255 411.281 609.832 411.505 607.301C412.492 596.16 413.588 581.915 415.106 562.918C418.301 522.928 421.791 505.967 425.283 496.492C426.959 491.945 436.567 491.795 446.195 492.175C458.18 492.648 467.096 501.556 474.06 510.537C482.608 521.56 486.332 542.251 491.524 565.697C495.684 584.483 499.174 592.015 500.322 597.955C500.859 600.738 501.686 602.97 503.51 600.409C517.082 581.348 521.962 563.957 530.946 552.085C538.462 542.152 551.447 535.698 569.2 528.503C587.581 521.054 614.67 528.392 633.56 541.415C640.005 545.858 642.85 550.41 644.756 554.993C646.594 559.413 646.462 566.504 645.077 572.931C644.578 575.244 640.896 574.021 638.374 572.774C628.845 568.062 624.099 558.662 620.678 549.242C618.987 544.583 617.891 501.287 615.809 438.01C614.677 403.589 620.412 381.387 626.52 365.503C629.639 357.392 636.956 353.022 643.239 349.869C652.193 345.376 669.274 344.758 686.613 344.682C704.571 344.603 716.928 368.776 739.636 414.789C755.937 447.821 753.551 478.941 754.491 518.228C754.883 534.614 757.567 549.001 759.103 561.785C759.543 565.447 759.67 569.84 759.783 570.314C760.502 573.325 759.679 539.363 759.528 501.377C759.462 484.868 762.153 472.047 768.408 446.283C777.494 408.86 788.54 384.443 797.133 369.008C829.333 311.171 838.857 301.224 848.301 289.69C863.491 271.14 870.154 264.205 877.6 256.132C887.843 245.027 897.273 228.648 906.557 214.702C915.15 201.793 928.786 188.677 943.87 178.136C956.204 169.516 971.606 169.471 1009.11 169.442C1027.53 169.428 1044.43 189.172 1057.24 202.139C1062.06 207.012 1066.15 215.172 1070.25 225.947C1075.25 239.087 1070.64 249.906 1067.73 253.872C1061.01 263.01 1048.82 267.551 1029.25 268.574C1017.72 269.176 991.548 237.98 972.185 204.545C965.481 192.969 964.192 169.766 960.56 137.72C956.927 105.675 954.379 64.0921 953.765 39.8247C953.151 15.5572 954.549 9.86535 955.989 4.00098" stroke="#FFCD6C" stroke-width="8" stroke-linecap="round"/>
</svg>
