<svg width="1512" height="1037" viewBox="0 0 1512 1037" fill="none" xmlns="http://www.w3.org/2000/svg">
<mask id="mask0_220_4" style="mask-type:luminance" maskUnits="userSpaceOnUse" x="-90" y="0" width="1007" height="611">
<path d="M-89.2626 0L892.837 0L916.737 610.832L-65.3626 610.832L-89.2626 0Z" fill="white"/>
</mask>
<g mask="url(#mask0_220_4)">
<path d="M649.073 376.949H590.365C590.365 376.949 586.679 288.96 506.033 260.162C441.166 237.028 390.949 261.043 390.949 261.043C354.338 174.246 269.399 112.596 172.605 112.596C46.5609 112.596 -51.5614 216.903 -46.5243 345.639C-46.0852 356.863 -44.6113 367.869 -42.6806 378.679C-118.886 387.29 -176.582 453.276 -173.438 533.632L-172.213 564.942C-168.841 651.114 -97.0247 721.626 -12.6322 721.626L662.559 721.626C746.959 721.626 813.25 651.116 809.878 564.942L808.653 533.632C805.28 447.436 733.474 376.949 649.073 376.949Z" fill="#F3F3F3"/>
</g>
<mask id="mask1_220_4" style="mask-type:luminance" maskUnits="userSpaceOnUse" x="690" y="68" width="956" height="555">
<path d="M1645.07 68.2148L709.896 68.2148L690.029 622.077L1625.2 622.077L1645.07 68.2148Z" fill="white"/>
</mask>
<g mask="url(#mask1_220_4)">
<path d="M847.426 307.911H903.329C903.329 307.911 906.422 228.127 983.078 202.016C1044.74 181.039 1092.67 202.815 1092.67 202.815C1127.12 124.113 1207.7 68.2124 1299.87 68.2124C1419.89 68.2124 1513.82 162.791 1509.63 279.52C1509.27 289.698 1507.92 299.677 1506.13 309.479C1578.73 317.287 1633.98 377.119 1631.37 449.981L1630.35 478.37C1627.55 556.505 1559.5 620.441 1479.14 620.441L836.216 620.441C755.85 620.441 692.393 556.507 695.196 478.37L696.214 449.981C699.018 371.823 767.059 307.911 847.426 307.911Z" fill="#F3F3F3"/>
</g>
<circle cx="795.5" cy="1212.5" r="760.5" fill="#FFCD6C"/>
</svg>
