<svg width="363" height="412" viewBox="0 0 363 412" fill="none" xmlns="http://www.w3.org/2000/svg">
<g clip-path="url(#clip0_20_357)">
<rect width="39.8805" height="15.9543" rx="5" transform="matrix(0.889346 -0.456201 0.433511 0.90073 207.073 235.052)" fill="black"/>
<rect width="54.7215" height="15.5378" rx="5" transform="matrix(0.093252 -0.995682 0.991728 0.128908 160.38 307.485)" fill="black"/>
<rect width="54.7215" height="15.5378" rx="5" transform="matrix(0.093252 -0.995682 0.991728 0.128908 187 307.485)" fill="black"/>
<rect width="42.2839" height="15.026" rx="5" transform="matrix(-0.0471427 0.999518 -0.996442 -0.0911048 137.358 239.236)" fill="black"/>
<rect x="124.169" y="207.5" width="6" height="23" rx="3" fill="black"/>
<rect x="139.169" y="206.5" width="19" height="6" rx="3" fill="black"/>
<path d="M95.709 218.484L194.847 285.009L242.552 180.127C248.169 167.778 248.919 152.823 244.636 138.552L243.912 136.138C235.395 107.753 208.777 89.8914 184.46 96.2432C171.084 99.7372 160.563 110.139 155.866 124.513L151.081 139.155L138.844 128.96C126.83 118.95 112.05 115.157 98.6738 118.651C74.3566 125.003 61.5483 153.163 70.0657 181.548L70.79 183.962C75.0723 198.233 84.0359 210.651 95.709 218.484Z" fill="#02B1FF"/>
<path d="M120.752 205.207L180.964 240.795L212.618 181.211C216.345 174.195 217.103 165.802 214.725 157.878L214.323 156.537C209.594 140.777 193.427 131.221 178.214 135.195C169.846 137.381 163.114 143.389 159.918 151.524L156.663 159.81L149.269 154.306C142.01 148.902 132.914 147.028 124.546 149.214C109.333 153.188 100.834 169.186 105.563 184.946L105.965 186.287C108.343 194.211 113.662 201.016 120.752 205.207Z" fill="#63C6FF"/>
<ellipse cx="9.1559" cy="10.5996" rx="9.1559" ry="10.5996" transform="matrix(1.00039 0.017357 0.018789 1.0004 112.53 165.134)" fill="black"/>
<ellipse cx="9.1559" cy="10.5996" rx="9.1559" ry="10.5996" transform="matrix(1.00039 0.017357 0.018789 1.0004 187.272 155.831)" fill="black"/>
<path d="M249 260.778L259.154 267L282 253" stroke="#02C978" stroke-width="8" stroke-linecap="round" stroke-linejoin="round"/>
</g>
<path d="M279.364 146.632L316.958 166.969L337.769 131.376C340.22 127.185 340.811 122.215 339.414 117.558L339.178 116.77C336.398 107.508 326.305 102.048 316.633 104.574C311.313 105.964 306.976 109.594 304.846 114.44L302.677 119.377L298.076 116.209C293.559 113.099 287.833 112.097 282.513 113.487C272.841 116.013 267.253 125.57 270.032 134.832L270.269 135.619C271.666 140.276 274.938 144.237 279.364 146.632Z" fill="#FF3900"/>
<ellipse cx="349" cy="296" rx="14" ry="13" fill="white"/>
<rect x="24.5206" y="28" width="71" height="92" rx="9" transform="rotate(28.2325 24.5206 28)" fill="#F3EBE0"/>
<rect x="19.7426" y="53.8103" width="32" height="10" rx="5" transform="rotate(28.2325 19.7426 53.8103)" fill="#E3D6C1"/>
<rect x="12.1738" y="67.9069" width="45" height="10" rx="5" transform="rotate(28.2325 12.1738 67.9069)" fill="#E3D6C1"/>
<rect x="4.60504" y="82.0034" width="36" height="10" rx="5" transform="rotate(28.2325 4.60504 82.0034)" fill="#E3D6C1"/>
<ellipse cx="241.5" cy="60.5" rx="35.5" ry="34.5" fill="#F3EBE0"/>
<circle cx="86" cy="362" r="50" fill="#F3EBE0"/>
<path d="M246.998 72.3233C248.817 68.5558 254.183 68.5558 256.002 72.3233L260.921 82.5092C261.543 83.796 262.685 84.7554 264.06 85.1452L273.034 87.6896C277.882 89.0642 277.882 95.9358 273.034 97.3104L264.06 99.8548C262.685 100.245 261.543 101.204 260.921 102.491L256.002 112.677C254.183 116.444 248.817 116.444 246.998 112.677L242.079 102.491C241.457 101.204 240.315 100.245 238.94 99.8548L229.966 97.3104C225.118 95.9358 225.118 89.0642 229.966 87.6896L238.94 85.1452C240.315 84.7554 241.457 83.796 242.079 82.5092L246.998 72.3233Z" fill="#FFCD6C"/>
<path d="M212.245 17.2077C213.004 15.8208 214.996 15.8208 215.755 17.2077L218.172 21.6261C218.439 22.1156 218.899 22.471 219.441 22.6065L223.249 23.5599C225.268 24.0653 225.268 26.9347 223.249 27.4401L219.441 28.3935C218.899 28.529 218.439 28.8844 218.172 29.3739L215.755 33.7923C214.996 35.1792 213.004 35.1792 212.245 33.7923L209.828 29.3739C209.561 28.8844 209.101 28.529 208.559 28.3935L204.751 27.4401C202.732 26.9347 202.732 24.0653 204.751 23.5599L208.559 22.6065C209.101 22.471 209.561 22.1156 209.828 21.6261L212.245 17.2077Z" fill="#FFCD6C"/>
<path d="M232.5 0L235.066 5.83927L242 8L235.066 10.1607L232.5 16L229.934 10.1607L223 8L229.934 5.83927L232.5 0Z" fill="#FFCD6C"/>
<path d="M206.644 330.631C207.315 328.956 209.685 328.956 210.356 330.631L213.425 338.287C213.642 338.827 214.084 339.247 214.635 339.435L222.459 342.107C224.264 342.724 224.264 345.276 222.459 345.893L214.635 348.565C214.084 348.753 213.642 349.173 213.425 349.713L210.356 357.369C209.685 359.044 207.315 359.044 206.644 357.369L203.575 349.713C203.358 349.173 202.916 348.753 202.365 348.565L194.541 345.893C192.736 345.276 192.736 342.724 194.541 342.107L202.365 339.435C202.916 339.247 203.358 338.827 203.575 338.287L206.644 330.631Z" fill="#FFCD6C"/>
<path d="M107.225 92.0939C107.206 90.2019 109.581 89.3441 110.776 90.8116L112.279 92.6591C112.816 93.3183 113.71 93.5664 114.51 93.2777L116.59 92.5265C118.446 91.8563 120.048 93.9936 118.885 95.5871L117.797 97.0759C117.261 97.8099 117.288 98.813 117.861 99.5179L119.09 101.027C120.305 102.52 118.916 104.7 117.05 104.229L114.578 103.606C113.787 103.407 112.955 103.707 112.474 104.366L110.971 106.424C109.835 107.979 107.375 107.189 107.355 105.265L107.336 103.319C107.327 102.41 106.706 101.621 105.825 101.399L104.038 100.948C102.124 100.466 101.991 97.7982 103.847 97.1281L105.928 96.3768C106.727 96.0881 107.257 95.3257 107.248 94.4758L107.225 92.0939Z" fill="#02B1FF"/>
<path d="M130.738 83.6029C130.72 81.7109 133.095 80.853 134.29 82.3205L135.793 84.1681C136.33 84.8273 137.224 85.0754 138.024 84.7867L140.104 84.0355C141.96 83.3653 143.562 85.5026 142.399 87.0961L141.311 88.5849C140.775 89.3189 140.802 90.322 141.375 91.0269L142.604 92.5363C143.819 94.0292 142.43 96.2087 140.564 95.7381L138.092 95.1149C137.301 94.9156 136.469 95.2162 135.988 95.8747L134.484 97.9333C133.349 99.4878 130.888 98.6985 130.869 96.7737L130.85 94.8276C130.841 93.9188 130.22 93.1303 129.339 92.9082L127.551 92.4575C125.638 91.9751 125.505 89.3072 127.361 88.637L129.441 87.8858C130.241 87.5971 130.771 86.8347 130.762 85.9848L130.738 83.6029Z" fill="#02B1FF"/>
<path d="M150.49 76.4704C150.471 74.5784 152.847 73.7205 154.041 75.1881L155.545 77.0356C156.081 77.6948 156.976 77.9429 157.775 77.6542L159.856 76.903C161.712 76.2328 163.314 78.3701 162.15 79.9636L161.063 81.4524C160.527 82.1864 160.553 83.1895 161.127 83.8944L162.355 85.4038C163.57 86.8968 162.182 89.0762 160.315 88.6056L157.843 87.9824C157.053 87.7831 156.22 88.0837 155.739 88.7422L154.236 90.8008C153.101 92.3553 150.64 91.566 150.621 89.6412L150.602 87.6951C150.593 86.7863 149.972 85.9979 149.091 85.7757L147.303 85.325C145.39 84.8426 145.257 82.1747 147.113 81.5046L149.193 80.7533C149.993 80.4646 150.522 79.7022 150.514 78.8523L150.49 76.4704Z" fill="#02B1FF"/>
<path d="M259.897 318.855C261.62 314.791 267.38 314.791 269.103 318.855L271.851 325.336C272.635 327.184 274.447 328.384 276.455 328.384H281.855C287.012 328.384 288.793 335.244 284.287 337.753L282.411 338.797C280.179 340.04 279.242 342.765 280.24 345.118L281.447 347.965C283.305 352.347 278.57 356.601 274.412 354.286L266.932 350.122C265.42 349.28 263.58 349.28 262.068 350.122L254.588 354.286C250.43 356.601 245.695 352.347 247.553 347.965L248.76 345.118C249.758 342.765 248.821 340.04 246.589 338.797L244.713 337.753C240.207 335.244 241.988 328.384 247.145 328.384H252.545C254.553 328.384 256.365 327.184 257.149 325.336L259.897 318.855Z" fill="#F3EBE0"/>
<circle cx="157.5" cy="332.5" r="17.5" fill="#FF3900"/>
<defs>
<clipPath id="clip0_20_357">
<rect width="179.679" height="211.867" fill="white" transform="matrix(0.967537 -0.25273 0.287407 0.957809 55.0098 130.41)"/>
</clipPath>
</defs>
</svg>
