<svg width="408" height="331" viewBox="0 0 408 331" fill="none" xmlns="http://www.w3.org/2000/svg">
<mask id="mask0_121_818" style="mask-type:luminance" maskUnits="userSpaceOnUse" x="-67" y="0" width="475" height="331">
<path d="M-67 0L391.52 0L407.293 331H-51.2267L-67 0Z" fill="white"/>
</mask>
<g mask="url(#mask0_121_818)">
<path d="M326.703 143.247H299.294C299.294 143.247 296.908 95.5671 259.038 79.9623C228.578 67.426 205.315 80.4399 205.315 80.4399C187.566 33.4057 147.444 -0.00161743 102.253 -0.00161743C43.4053 -0.00161743 -1.618 56.5208 1.70629 126.281C1.99612 132.363 2.76737 138.327 3.75044 144.185C-31.7634 148.851 -58.2017 184.608 -56.1267 228.151L-55.3182 245.118C-53.093 291.813 -19.0308 330.022 20.3703 330.022L335.603 330.022C375.008 330.022 405.425 291.814 403.2 245.118L402.391 228.151C400.166 181.443 366.108 143.247 326.703 143.247Z" fill="#F3F3F3"/>
</g>
</svg>
