<svg width="365" height="384" viewBox="0 0 365 384" fill="none" xmlns="http://www.w3.org/2000/svg">
<mask id="mask0_30_446" style="mask-type:luminance" maskUnits="userSpaceOnUse" x="111" y="174" width="95" height="81">
<path d="M111 200.271L181.816 174L205.14 228.729L134.323 255L111 200.271Z" fill="white"/>
</mask>
<g mask="url(#mask0_30_446)">
<path d="M180.845 201.79L176.612 203.36C176.612 203.36 173.235 195.483 166.401 195.03C160.906 194.668 158.134 198.189 158.134 198.189C152.425 191.3 144.12 187.984 137.14 190.573C128.052 193.945 124.665 206.025 129.58 217.559C130.009 218.565 130.504 219.523 131.026 220.451C125.835 223.27 124.008 230.795 127.077 237.994L128.272 240.8C131.562 248.521 139.234 252.991 145.32 250.733L194.006 232.672C200.092 230.414 202.379 222.25 199.088 214.529L197.893 211.723C194.601 204 186.931 199.532 180.845 201.79Z" fill="#02B1FF"/>
</g>
<ellipse cx="349" cy="268" rx="14" ry="13" fill="white"/>
<rect x="24.5206" width="71" height="92" rx="9" transform="rotate(28.2325 24.5206 0)" fill="#F3EBE0"/>
<rect x="19.7426" y="25.8103" width="32" height="10" rx="5" transform="rotate(28.2325 19.7426 25.8103)" fill="#E3D6C1"/>
<rect x="12.1738" y="39.9069" width="45" height="10" rx="5" transform="rotate(28.2325 12.1738 39.9069)" fill="#E3D6C1"/>
<rect x="4.60504" y="54.0034" width="36" height="10" rx="5" transform="rotate(28.2325 4.60504 54.0034)" fill="#E3D6C1"/>
<ellipse cx="123.5" cy="78.5" rx="35.5" ry="34.5" fill="#F3EBE0"/>
<circle cx="86" cy="334" r="50" fill="#F3EBE0"/>
<path d="M128.998 90.3233C130.817 86.5558 136.183 86.5558 138.002 90.3233L142.921 100.509C143.543 101.796 144.685 102.755 146.06 103.145L155.034 105.69C159.882 107.064 159.882 113.936 155.034 115.31L146.06 117.855C144.685 118.245 143.543 119.204 142.921 120.491L138.002 130.677C136.183 134.444 130.817 134.444 128.998 130.677L124.079 120.491C123.457 119.204 122.315 118.245 120.94 117.855L111.966 115.31C107.118 113.936 107.118 107.064 111.966 105.69L120.94 103.145C122.315 102.755 123.457 101.796 124.079 100.509L128.998 90.3233Z" fill="#FFCD6C"/>
<path d="M94.2454 35.2077C95.004 33.8208 96.996 33.8208 97.7546 35.2077L100.172 39.6261C100.439 40.1156 100.899 40.471 101.441 40.6065L105.249 41.5599C107.268 42.0653 107.268 44.9347 105.249 45.4401L101.441 46.3935C100.899 46.529 100.439 46.8844 100.172 47.3739L97.7546 51.7923C96.996 53.1792 95.004 53.1792 94.2454 51.7923L91.8285 47.3739C91.5607 46.8844 91.1007 46.529 90.5595 46.3935L86.7507 45.4401C84.7316 44.9347 84.7316 42.0653 86.7507 41.5599L90.5595 40.6065C91.1007 40.471 91.5607 40.1156 91.8285 39.6261L94.2454 35.2077Z" fill="#FFCD6C"/>
<path d="M114.5 18L117.066 23.8393L124 26L117.066 28.1607L114.5 34L111.934 28.1607L105 26L111.934 23.8393L114.5 18Z" fill="#FFCD6C"/>
<path d="M268.583 193.888C272.937 187.355 282.536 187.355 286.89 193.888L323.185 248.353C328.057 255.663 322.816 265.453 314.032 265.453H241.441C232.656 265.453 227.416 255.663 232.287 248.353L268.583 193.888Z" fill="#02C978"/>
<path d="M311.968 206.64C319.694 206.485 325.041 214.135 321.773 220.669L291.136 281.909C287.751 288.676 277.732 289.165 273.271 282.782L231.489 222.999C227.027 216.615 231.548 208.259 239.55 208.098L311.968 206.64Z" fill="#02C978"/>
<ellipse cx="187.427" cy="103.101" rx="16.4096" ry="15.3103" transform="rotate(20.5799 187.427 103.101)" fill="#FFCD6C"/>
<ellipse cx="211.568" cy="112.166" rx="16.4096" ry="15.3103" transform="rotate(20.5799 211.568 112.166)" fill="#FFCD6C"/>
<ellipse cx="235.709" cy="121.23" rx="16.4096" ry="15.3103" transform="rotate(20.5799 235.709 121.23)" fill="#FFCD6C"/>
<ellipse cx="178.97" cy="125.625" rx="16.4096" ry="15.3103" transform="rotate(20.5799 178.97 125.625)" fill="#FFCD6C"/>
<ellipse cx="203.111" cy="134.689" rx="16.4096" ry="15.3103" transform="rotate(20.5799 203.111 134.689)" fill="#FFCD6C"/>
<ellipse cx="227.252" cy="143.754" rx="16.4096" ry="15.3103" transform="rotate(20.5799 227.252 143.754)" fill="#FFCD6C"/>
<ellipse cx="169.744" cy="150.196" rx="16.4096" ry="15.3103" transform="rotate(20.5799 169.744 150.196)" fill="#FFCD6C"/>
<ellipse cx="193.885" cy="159.261" rx="16.4096" ry="15.3103" transform="rotate(20.5799 193.885 159.261)" fill="#FFCD6C"/>
<ellipse cx="218.026" cy="168.325" rx="16.4096" ry="15.3103" transform="rotate(20.5799 218.026 168.325)" fill="#FFCD6C"/>
<rect x="188.553" y="104.8" width="43.3404" height="43" transform="rotate(17.8727 188.553 104.8)" fill="#FFCD6C"/>
<rect x="33.3406" y="224.82" width="27" height="39" rx="13.5" transform="rotate(19.5612 33.3406 224.82)" fill="#FF3900"/>
<rect x="59.9732" y="221.548" width="27" height="51" rx="13.5" transform="rotate(19.5612 59.9732 221.548)" fill="#FF3900"/>
<rect x="87.2755" y="216.391" width="27" height="65" rx="13.5" transform="rotate(19.5612 87.2755 216.391)" fill="#FF3900"/>
<path d="M233.178 294.968L221.121 342.806L174.64 359.329L140.213 328.017L152.268 280.181L198.751 263.656L233.178 294.968Z" fill="#F3EBE0"/>
<ellipse cx="186" cy="307.5" rx="11" ry="10.5" fill="white"/>
<ellipse cx="17.2273" cy="14.7888" rx="17.2273" ry="14.7888" transform="matrix(0.925957 0.37763 -0.470479 0.882411 63.8865 134.84)" fill="#02B1FF"/>
<path d="M66.4391 159.407C69.5987 157.698 73.4396 159.264 73.9731 162.48L78.5018 189.779C79.1343 193.592 74.7809 196.756 71.0148 195.22L39.6639 182.434C35.8978 180.898 35.8705 175.948 39.617 173.921L66.4391 159.407Z" fill="#02B1FF"/>
</svg>
