<svg width="1512" height="1461" viewBox="0 0 1512 1461" fill="none" xmlns="http://www.w3.org/2000/svg">
<path d="M-0.214041 1266.67C-2.57296 1164.8 -30.8288 1020.36 76.2876 926.476C116.052 891.973 167.81 884.67 199.953 905.583C244.349 934.359 259.789 985.401 280.155 1035.39C303.491 1097.87 320.172 1164.27 337.445 1230.38C359.653 1305.08 371.941 1398.2 439.388 1437.73C505.85 1475.62 603.323 1410.23 633.995 1327.58C672.133 1172.52 668.714 910.727 691.862 763.397C700.628 719.189 746.278 677.802 791.159 680.1C831.188 682.801 856.664 713.691 872.546 743.88C913.809 827.622 963.399 974.683 1019.19 1040.5C1055.15 1087.97 1123.72 1068 1179.93 1020.84C1289.25 925.315 1331.16 721.759 1352.32 602.784C1366.89 507.624 1370.13 413.234 1367.26 320.41C1357.66 143.283 1322.71 0.691036 1202.82 12.7068C1154.55 17.4032 1090.78 51.2729 1054.84 99.0667C982.129 189.358 998.526 283.494 1039 353.065C1073.04 416.327 1119.93 468.136 1181.54 504.731C1374.59 621.818 1593.97 495.838 1585.69 229.34" stroke="#FFCD6C" stroke-width="24" stroke-miterlimit="10" stroke-linecap="round"/>
</svg>
