<svg width="1461" height="1066" viewBox="0 0 1461 1066" fill="none" xmlns="http://www.w3.org/2000/svg">
<path d="M-137.214 1266.67C-139.573 1164.8 -167.829 1020.36 -60.7124 926.476C-20.9478 891.973 30.8098 884.67 62.9527 905.583C107.349 934.359 122.789 985.401 143.155 1035.39C166.491 1097.87 183.172 1164.27 200.445 1230.38C222.653 1305.08 234.941 1398.2 302.388 1437.73C368.85 1475.62 466.323 1410.23 496.995 1327.58C535.133 1172.52 531.714 910.727 554.862 763.397C563.628 719.189 609.278 677.802 654.159 680.1C694.188 682.801 719.664 713.691 735.546 743.88C776.809 827.622 826.399 974.683 882.189 1040.5C918.145 1087.97 986.724 1068 1042.93 1020.84C1152.25 925.315 1194.16 721.759 1215.32 602.784C1229.89 507.624 1233.13 413.234 1230.26 320.41C1220.66 143.283 1185.71 0.691036 1065.82 12.7068C1017.55 17.4032 953.778 51.2729 917.837 99.0667C845.129 189.358 861.526 283.494 901.997 353.065C936.036 416.327 982.925 468.136 1044.54 504.731C1237.59 621.818 1456.97 495.838 1448.69 229.34" stroke="#FFCD6C" stroke-width="24" stroke-miterlimit="10" stroke-linecap="round"/>
</svg>
