<svg width="1512" height="461" viewBox="0 0 1512 461" fill="none" xmlns="http://www.w3.org/2000/svg">
<ellipse cx="66.5" cy="258" rx="202.5" ry="203" fill="#FFCD6C"/>
<mask id="mask0_145_11" style="mask-type:luminance" maskUnits="userSpaceOnUse" x="1204" y="0" width="476" height="279">
<path d="M1204 0L1666.53 0L1679.82 279H1217.3L1204 0Z" fill="white"/>
</mask>
<g mask="url(#mask0_145_11)">
<path d="M1600.01 120.745H1572.36C1572.36 120.745 1570.33 80.5549 1532.25 67.4016C1501.63 56.8348 1478.06 67.8042 1478.06 67.8042C1460.53 28.159 1420.32 0 1374.73 0C1315.37 0 1269.51 47.6428 1272.31 106.443C1272.55 111.57 1273.28 116.597 1274.23 121.535C1238.37 125.468 1211.42 155.607 1213.16 192.31L1213.85 206.611C1215.72 245.971 1249.78 278.177 1289.52 278.177L1607.51 278.177C1647.26 278.177 1678.25 245.972 1676.37 206.611L1675.69 192.31C1673.81 152.94 1639.76 120.745 1600.01 120.745Z" fill="#F3F3F3"/>
</g>
<path d="M961.396 219.56C961.848 221.317 959.915 222.719 958.385 221.745L947.305 214.69C946.814 214.376 946.21 214.293 945.652 214.462L932.827 218.344C931.011 218.894 929.522 216.841 930.608 215.285L938.277 204.298C938.611 203.82 938.719 203.22 938.574 202.655L935.305 189.933C934.854 188.176 936.786 186.774 938.316 187.748L949.396 194.804C949.888 195.117 950.492 195.2 951.05 195.031L963.874 191.149C965.691 190.6 967.18 192.652 966.094 194.208L958.424 205.196C958.091 205.674 957.982 206.273 958.127 206.838L961.396 219.56Z" fill="#FF33FF" fill-opacity="0.26"/>
</svg>
