<svg width="1512" height="286" viewBox="0 0 1512 286" fill="none" xmlns="http://www.w3.org/2000/svg">
<mask id="mask0_175_1743" style="mask-type:luminance" maskUnits="userSpaceOnUse" x="1018" y="0" width="550" height="436">
<path d="M1018.3 160.252L1450.28 3.59365e-05L1567.5 275.064L1135.52 435.317L1018.3 160.252Z" fill="white"/>
</mask>
<g mask="url(#mask0_175_1743)">
<path d="M1433.51 144.079L1407.69 153.659C1407.69 153.659 1390.7 114.076 1350.19 114.083C1317.62 114.102 1299.73 133.264 1299.73 133.264C1268.46 99.5982 1220.33 85.3027 1177.76 101.097C1122.32 121.664 1097.38 185.312 1122.08 243.283C1124.24 248.337 1126.81 253.123 1129.55 257.745C1097.53 274.113 1083.68 313.663 1099.1 349.848L1105.11 363.947C1121.65 402.751 1165.55 423.235 1202.67 409.465L1499.66 299.291C1536.78 285.519 1553.62 242.501 1537.08 203.695L1531.08 189.596C1514.53 150.781 1470.64 130.307 1433.51 144.079Z" fill="#F3F3F3"/>
</g>
<path d="M1430 60.3233C1431.82 56.5557 1437.18 56.5557 1439 60.3233L1443.92 70.5091C1444.54 71.7959 1445.69 72.7553 1447.06 73.1451L1456.03 75.6896C1460.88 77.0642 1460.88 83.9357 1456.03 85.3103L1447.06 87.8548C1445.69 88.2446 1444.54 89.204 1443.92 90.4908L1439 100.677C1437.18 104.444 1431.82 104.444 1430 100.677L1425.08 90.4908C1424.46 89.204 1423.31 88.2446 1421.94 87.8548L1412.97 85.3103C1408.12 83.9357 1408.12 77.0642 1412.97 75.6896L1421.94 73.1451C1423.31 72.7553 1424.46 71.7959 1425.08 70.5091L1430 60.3233Z" fill="#FF33FF" fill-opacity="0.26"/>
<rect x="1352.24" y="71.9999" width="27" height="27" rx="4" transform="rotate(45.4365 1352.24 71.9999)" fill="#FFCD6C"/>
<circle cx="320" cy="329" r="257" fill="#FFCD6C"/>
<mask id="mask1_175_1743" style="mask-type:luminance" maskUnits="userSpaceOnUse" x="-27" y="1" width="331" height="186">
<path d="M-26.9537 0.999939L294.467 0.999939L303.331 187L-18.0902 187L-26.9537 0.999939Z" fill="white"/>
</mask>
<g mask="url(#mask1_175_1743)">
<path d="M248.081 81.4954H228.867C228.867 81.4954 227.51 54.7023 201.067 45.9334C179.798 38.8889 163.404 46.2018 163.404 46.2018C151.274 19.7717 123.37 0.999023 91.6911 0.999023C50.4393 0.999023 18.5035 32.7609 20.3716 71.9613C20.5344 75.379 21.0355 78.7304 21.6858 82.0222C-3.24014 84.6443 -22.0103 104.737 -20.8442 129.206L-20.3899 138.74C-19.1395 164.979 4.48474 186.451 32.1048 186.451L253.082 186.451C280.705 186.451 302.28 164.98 301.03 138.74L300.575 129.206C299.325 102.959 275.704 81.4954 248.081 81.4954Z" fill="#F3F3F3"/>
</g>
<circle cx="1364.5" cy="57.4999" r="6.5" fill="#FF33FF" fill-opacity="0.247059"/>
</svg>
