<svg width="568" height="717" viewBox="0 0 568 717" fill="none" xmlns="http://www.w3.org/2000/svg">
<ellipse cx="389" cy="375.5" rx="389" ry="375.5" fill="#FFCD6C"/>
<mask id="mask0_127_883" style="mask-type:luminance" maskUnits="userSpaceOnUse" x="117" y="489" width="451" height="263">
<path d="M117 489H555.226L567.729 751.375H129.503L117 489Z" fill="white"/>
</mask>
<g mask="url(#mask0_127_883)">
<path d="M492.165 602.548H465.968C465.968 602.548 464.058 564.754 427.986 552.384C398.972 542.447 376.637 552.763 376.637 552.763C360.039 515.48 321.953 488.999 278.762 488.999C222.519 488.999 179.049 533.803 181.684 589.099C181.914 593.921 182.605 598.648 183.499 603.292C149.52 606.99 123.974 635.334 125.619 669.85L126.26 683.298C128.024 720.313 160.282 750.6 197.939 750.6H499.219C536.88 750.6 566.248 720.314 564.484 683.298L563.843 669.85C562.079 632.825 529.825 602.548 492.165 602.548Z" fill="white"/>
</g>
</svg>
