<svg width="425" height="383" viewBox="0 0 425 383" fill="none" xmlns="http://www.w3.org/2000/svg">
<ellipse cx="390.069" cy="145.922" rx="54.2381" ry="23.5" transform="rotate(-34.1979 390.069 145.922)" fill="#02B1FF"/>
<path d="M112.998 260.323C114.817 256.556 120.183 256.556 122.002 260.323L126.921 270.509C127.543 271.796 128.685 272.755 130.06 273.145L139.034 275.69C143.882 277.064 143.882 283.936 139.034 285.31L130.06 287.855C128.685 288.245 127.543 289.204 126.921 290.491L122.002 300.677C120.183 304.444 114.817 304.444 112.998 300.677L108.079 290.491C107.457 289.204 106.315 288.245 104.94 287.855L95.9659 285.31C91.1178 283.936 91.1178 277.064 95.9659 275.69L104.94 273.145C106.315 272.755 107.457 271.796 108.079 270.509L112.998 260.323Z" fill="#FFCD6C"/>
<circle cx="210" cy="333" r="50" fill="#F3EBE0"/>
<circle cx="266" cy="117" r="50" fill="#F3EBE0"/>
<path d="M112.998 260.323C114.817 256.556 120.183 256.556 122.002 260.323L126.921 270.509C127.543 271.796 128.685 272.755 130.06 273.145L139.034 275.69C143.882 277.064 143.882 283.936 139.034 285.31L130.06 287.855C128.685 288.245 127.543 289.204 126.921 290.491L122.002 300.677C120.183 304.444 114.817 304.444 112.998 300.677L108.079 290.491C107.457 289.204 106.315 288.245 104.94 287.855L95.9659 285.31C91.1178 283.936 91.1178 277.064 95.9659 275.69L104.94 273.145C106.315 272.755 107.457 271.796 108.079 270.509L112.998 260.323Z" fill="#FFCD6C"/>
<circle cx="245.5" cy="365.5" r="17.5" fill="#02B1FF"/>
<path d="M182.519 168.728C189.821 156.001 208.179 156.001 215.481 168.728L250.226 229.295C257.493 241.962 248.349 257.75 233.746 257.75H164.254C149.651 257.75 140.507 241.962 147.774 229.295L182.519 168.728Z" fill="#FFCD6C"/>
<path d="M95 208.833C112.673 208.833 127 195.103 127 178.167C127 161.23 112.673 147.5 95 147.5C77.3269 147.5 63 161.23 63 178.167C63 195.103 77.3269 208.833 95 208.833Z" stroke="#02B1FF" stroke-width="8" stroke-linecap="round" stroke-linejoin="round"/>
<path d="M135.002 216.494L117.602 199.819" stroke="#02B1FF" stroke-width="8" stroke-linecap="round" stroke-linejoin="round"/>
<path d="M33.219 267.04L27.0613 242.219L51.8826 236.061" stroke="#02C978" stroke-width="9" stroke-linecap="round" stroke-linejoin="round"/>
<path d="M58.0403 260.883L27.0613 242.219" stroke="#02C978" stroke-width="9" stroke-linecap="round" stroke-linejoin="round"/>
<path d="M345.792 12.3958C363.5 5.3125 370.583 21.25 356.417 26.5625C326.312 35.4167 328.083 53.125 338.708 56.6667C356.417 63.75 370.583 21.25 388.292 31.875C406 42.5 390.062 79.6875 374.125 74.375C356.417 65.5208 375.896 35.4167 395.375 67.2917" stroke="#02C978" stroke-width="4" stroke-linecap="round" stroke-linejoin="round"/>
<path d="M149.898 98.96C157.487 96.5146 161.735 88.6194 159.385 81.3258C157.034 74.0321 148.977 70.1018 141.388 72.5472C133.798 74.9926 129.551 82.8877 131.901 90.1814C134.251 97.4751 142.309 101.405 149.898 98.96Z" fill="#FF3900"/>
<path d="M181.441 102.717C179.069 95.3578 171.075 91.3486 163.584 93.7623L136.457 102.503C128.966 104.917 124.816 112.839 127.187 120.199L131.481 133.524L185.734 116.043L181.441 102.717Z" fill="#FF3900"/>
<ellipse cx="312.694" cy="243.134" rx="33.3069" ry="23.0008" transform="rotate(-17.4676 312.694 243.134)" fill="#02C978"/>
<rect x="297.854" y="223.65" width="69" height="46" rx="11" transform="rotate(-17.414 297.854 223.65)" fill="#02C978"/>
<path d="M375.081 271.742C364.386 275.097 352.997 269.146 349.643 258.452L338.359 222.474C336.541 216.677 339.766 210.504 345.563 208.686L353.196 206.292C358.993 204.474 365.166 207.699 366.984 213.496L381.437 259.577C383.041 264.691 380.195 270.138 375.081 271.742V271.742Z" fill="#02C978"/>
<path d="M327.584 345.27C327.098 345.147 326.65 344.913 326.283 344.592L305.034 325.985C304.85 325.822 304.624 325.704 304.379 325.642C304.134 325.58 303.879 325.577 303.64 325.632C303.4 325.688 303.185 325.8 303.015 325.958C302.845 326.117 302.726 326.315 302.671 326.533L299.714 338.211C299.601 338.655 299.623 339.124 299.779 339.57C299.934 340.016 300.216 340.422 300.597 340.748L322.534 359.521C322.896 359.831 323.335 360.056 323.808 360.176C324.282 360.296 324.775 360.307 325.241 360.206L353.47 354.139C353.959 354.034 354.401 353.81 354.75 353.492C355.099 353.173 355.342 352.772 355.454 352.328L358.411 340.65C358.467 340.432 358.457 340.201 358.383 339.981C358.309 339.761 358.172 339.56 357.988 339.397C357.804 339.234 357.578 339.115 357.333 339.053C357.089 338.991 356.834 338.988 356.594 339.043L329.05 345.292C328.574 345.4 328.069 345.393 327.584 345.27Z" fill="#FF3900"/>
<path d="M376.354 328.296C376.354 328.296 376.357 328.284 376.358 328.279C376.413 327.874 376.359 327.458 376.201 327.065C376.042 326.672 375.784 326.313 375.448 326.02L341.463 296.265C341.096 295.944 340.648 295.71 340.162 295.588C339.677 295.465 339.172 295.457 338.697 295.565L294.645 305.556C294.164 305.665 293.73 305.889 293.388 306.205C293.045 306.522 292.806 306.919 292.696 307.357C292.585 307.794 292.606 308.257 292.756 308.698C292.907 309.14 293.182 309.543 293.553 309.868L327.538 339.623C327.905 339.944 328.353 340.178 328.838 340.301C329.323 340.423 329.829 340.431 330.304 340.323L369.061 331.535C369.121 331.521 369.185 331.522 369.246 331.537C369.307 331.553 369.364 331.582 369.41 331.623C369.456 331.664 369.49 331.715 369.509 331.77C369.527 331.825 369.529 331.882 369.515 331.937L363.832 354.376C363.494 355.713 364.356 357.152 365.839 357.599C366.212 357.71 366.602 357.753 366.985 357.726C367.368 357.698 367.737 357.599 368.069 357.437C368.401 357.274 368.689 357.05 368.916 356.779C369.143 356.507 369.303 356.194 369.389 355.857L376.309 328.533C376.329 328.455 376.344 328.376 376.354 328.296Z" fill="#FF3900"/>
</svg>
