<svg width="1512" height="1548" viewBox="0 0 1512 1548" fill="none" xmlns="http://www.w3.org/2000/svg">
<circle cx="718.5" cy="787.5" r="760.5" fill="#FFCD6C"/>
<mask id="mask0_214_3" style="mask-type:luminance" maskUnits="userSpaceOnUse" x="-239" y="0" width="1078" height="858">
<path d="M-214.395 0L838.413 0L814.808 857.914L-238.001 857.914L-214.395 0Z" fill="white"/>
</mask>
<g mask="url(#mask0_214_3)">
<path d="M554.198 529.426L491.267 529.426C491.267 529.426 494.395 405.844 410.265 365.398C342.594 332.906 286.833 366.636 286.833 366.636C254.572 244.729 168.483 158.141 64.7267 158.141C-70.3836 158.141 -183.956 304.641 -188.914 485.45C-189.346 501.214 -188.652 516.672 -187.452 531.855C-269.832 543.95 -336.987 636.627 -340.081 749.487L-341.287 793.461C-344.606 914.491 -273.297 1013.52 -182.835 1013.52L540.923 1013.52C631.394 1013.52 708.126 914.494 711.445 793.461L712.65 749.487C715.97 628.424 644.67 529.426 554.198 529.426Z" fill="white"/>
</g>
<mask id="mask1_214_3" style="mask-type:luminance" maskUnits="userSpaceOnUse" x="636" y="222" width="1150" height="664">
<path d="M1759.96 222.812L636.219 222.812L661.907 885L1785.64 885L1759.96 222.812Z" fill="white"/>
</mask>
<g mask="url(#mask1_214_3)">
<path d="M822.941 509.389L890.112 509.389C890.112 509.389 886.706 414.001 976.482 382.783C1048.69 357.703 1108.23 383.738 1108.23 383.738C1142.6 289.643 1234.44 222.81 1345.19 222.81C1489.4 222.81 1610.71 335.887 1616.1 475.446C1616.57 487.613 1615.83 499.545 1614.56 511.264C1702.5 520.599 1774.23 592.133 1777.59 679.245L1778.9 713.187C1782.51 806.604 1706.45 883.045 1609.9 883.045L837.375 883.045C740.809 883.045 658.853 806.607 655.245 713.187L653.934 679.245C650.324 585.802 726.374 509.389 822.941 509.389Z" fill="white"/>
</g>
</svg>
