<svg width="203" height="322" viewBox="0 0 203 322" fill="none" xmlns="http://www.w3.org/2000/svg">
<rect x="18.4419" y="79.6371" width="163.67" height="242.299" rx="9" fill="url(#paint0_linear_176_1845)"/>
<path d="M92.7886 29.6533C95.3071 21.0104 107.551 21.0104 110.07 29.6533L122.313 71.6687C123.432 75.5098 126.953 78.1509 130.953 78.1509H172.488C180.968 78.1509 184.742 88.806 178.153 94.1439L142.925 122.684C140.108 124.966 138.935 128.715 139.949 132.195L152.999 176.98C155.467 185.448 145.546 192.043 138.693 186.491L107.095 160.892C103.792 158.216 99.0669 158.216 95.7639 160.892L64.1653 186.491C57.3124 192.043 47.3919 185.448 49.8592 176.98L62.9091 132.195C63.9232 128.715 62.7504 124.966 59.9339 122.684L24.7052 94.1439C18.1164 88.806 21.8909 78.1509 30.3707 78.1509H71.9052C75.906 78.1509 79.4266 75.5098 80.5458 71.6687L92.7886 29.6533Z" fill="#FFCD6C"/>
<path d="M159.508 43.0433L163.122 53.0049L172.888 56.691L163.122 60.3771L159.508 70.3387L155.894 60.3771L146.128 56.691L155.894 53.0049L159.508 43.0433Z" fill="white"/>
<path d="M88.3817 201.733L93.3982 215.561L106.955 220.678L93.3982 225.795L88.3817 239.623L83.3653 225.795L69.8086 220.678L83.3653 215.561L88.3817 201.733Z" fill="white"/>
<rect width="14.3677" height="14.8683" transform="matrix(0.666358 0.745632 -0.677256 0.735747 136.233 233.624)" fill="#FFCD6C"/>
<defs>
<linearGradient id="paint0_linear_176_1845" x1="100.277" y1="79.6371" x2="100.277" y2="321.936" gradientUnits="userSpaceOnUse">
<stop stop-color="#FAA500"/>
<stop offset="1" stop-color="#FFCD6C" stop-opacity="0"/>
</linearGradient>
</defs>
</svg>
