<svg width="316" height="351" viewBox="0 0 316 351" fill="none" xmlns="http://www.w3.org/2000/svg">
<ellipse cx="99.5" cy="34.5" rx="35.5" ry="34.5" fill="#F3EBE0"/>
<ellipse cx="268.5" cy="316.5" rx="35.5" ry="34.5" fill="#F3EBE0"/>
<circle cx="109" cy="285" r="50" fill="#F3EBE0"/>
<circle cx="266" cy="69" r="50" fill="#F3EBE0"/>
<path d="M189.998 244.323C191.817 240.556 197.183 240.556 199.002 244.323L203.921 254.509C204.543 255.796 205.685 256.755 207.06 257.145L216.034 259.69C220.882 261.064 220.882 267.936 216.034 269.31L207.06 271.855C205.685 272.245 204.543 273.204 203.921 274.491L199.002 284.677C197.183 288.444 191.817 288.444 189.998 284.677L185.079 274.491C184.457 273.204 183.315 272.245 181.94 271.855L172.966 269.31C168.118 267.936 168.118 261.064 172.966 259.69L181.94 257.145C183.315 256.755 184.457 255.796 185.079 254.509L189.998 244.323Z" fill="#FFCD6C"/>
<path d="M208.245 307.208C209.004 305.821 210.996 305.821 211.755 307.208L214.172 311.626C214.439 312.116 214.899 312.471 215.441 312.606L219.249 313.56C221.268 314.065 221.268 316.935 219.249 317.44L215.441 318.394C214.899 318.529 214.439 318.884 214.172 319.374L211.755 323.792C210.996 325.179 209.004 325.179 208.245 323.792L205.828 319.374C205.561 318.884 205.101 318.529 204.559 318.394L200.751 317.44C198.732 316.935 198.732 314.065 200.751 313.56L204.559 312.606C205.101 312.471 205.561 312.116 205.828 311.626L208.245 307.208Z" fill="#FFCD6C"/>
<path d="M194.755 22.2077C193.996 20.8208 192.004 20.8208 191.245 22.2077L188.828 26.6261C188.561 27.1156 188.101 27.471 187.559 27.6065L183.751 28.5599C181.732 29.0653 181.732 31.9347 183.751 32.4401L187.559 33.3935C188.101 33.529 188.561 33.8844 188.828 34.3739L191.245 38.7923C192.004 40.1792 193.996 40.1792 194.755 38.7923L197.172 34.3739C197.439 33.8844 197.899 33.529 198.441 33.3935L202.249 32.4401C204.268 31.9347 204.268 29.0653 202.249 28.5599L198.441 27.6065C197.899 27.471 197.439 27.1156 197.172 26.6261L194.755 22.2077Z" fill="#FFCD6C"/>
<path d="M174.5 5L171.934 10.8393L165 13L171.934 15.1607L174.5 21L177.066 15.1607L184 13L177.066 10.8393L174.5 5Z" fill="#FFCD6C"/>
<path d="M22.0979 67.8541C22.6966 66.0115 25.3034 66.0115 25.9021 67.8541L27.5922 73.0557C27.86 73.8798 28.6279 74.4377 29.4943 74.4377H34.9636C36.9011 74.4377 37.7066 76.9169 36.1392 78.0557L31.7145 81.2705C31.0135 81.7798 30.7202 82.6825 30.9879 83.5066L32.678 88.7082C33.2767 90.5508 31.1678 92.0831 29.6003 90.9443L25.1756 87.7295C24.4746 87.2202 23.5254 87.2202 22.8244 87.7295L18.3997 90.9443C16.8322 92.0831 14.7233 90.5508 15.322 88.7082L17.0121 83.5066C17.2798 82.6825 16.9865 81.7798 16.2855 81.2705L11.8608 78.0557C10.2934 76.9169 11.0989 74.4377 13.0364 74.4377H18.5057C19.3721 74.4377 20.14 73.8798 20.4078 73.0557L22.0979 67.8541Z" fill="#F3EBE0"/>
<path d="M98.0979 191.854C98.6966 190.011 101.303 190.011 101.902 191.854L103.592 197.056C103.86 197.88 104.628 198.438 105.494 198.438H110.964C112.901 198.438 113.707 200.917 112.139 202.056L107.714 205.271C107.013 205.78 106.72 206.683 106.988 207.507L108.678 212.708C109.277 214.551 107.168 216.083 105.6 214.944L101.176 211.729C100.475 211.22 99.5254 211.22 98.8244 211.729L94.3997 214.944C92.8322 216.083 90.7233 214.551 91.322 212.708L93.0121 207.507C93.2798 206.683 92.9865 205.78 92.2855 205.271L87.8608 202.056C86.2934 200.917 87.0989 198.438 89.0364 198.438H94.5057C95.3721 198.438 96.14 197.88 96.4078 197.056L98.0979 191.854Z" fill="#F3EBE0"/>
<path d="M142.098 61.8541C142.697 60.0115 145.303 60.0115 145.902 61.8541L147.592 67.0557C147.86 67.8798 148.628 68.4377 149.494 68.4377H154.964C156.901 68.4377 157.707 70.9169 156.139 72.0557L151.714 75.2705C151.013 75.7798 150.72 76.6825 150.988 77.5066L152.678 82.7082C153.277 84.5508 151.168 86.0831 149.6 84.9443L145.176 81.7295C144.475 81.2202 143.525 81.2202 142.824 81.7295L138.4 84.9443C136.832 86.0831 134.723 84.5508 135.322 82.7082L137.012 77.5066C137.28 76.6825 136.987 75.7798 136.286 75.2705L131.861 72.0557C130.293 70.9169 131.099 68.4377 133.036 68.4377H138.506C139.372 68.4377 140.14 67.8798 140.408 67.0557L142.098 61.8541Z" fill="#F3EBE0"/>
<path d="M163.098 85.8541C163.697 84.0115 166.303 84.0115 166.902 85.8541L167.47 87.6008C167.737 88.4249 168.505 88.9828 169.372 88.9828H171.208C173.146 88.9828 173.951 91.462 172.384 92.6008L170.898 93.6803C170.197 94.1896 169.904 95.0924 170.172 95.9164L170.739 97.6631C171.338 99.5057 169.229 101.038 167.661 99.8992L166.176 98.8197C165.475 98.3104 164.525 98.3104 163.824 98.8197L162.339 99.8992C160.771 101.038 158.662 99.5057 159.261 97.6631L159.828 95.9164C160.096 95.0924 159.803 94.1896 159.102 93.6803L157.616 92.6008C156.049 91.462 156.854 88.9828 158.792 88.9828H160.628C161.495 88.9828 162.263 88.4249 162.53 87.6008L163.098 85.8541Z" fill="#F3EBE0"/>
<circle cx="77.5" cy="321.5" r="17.5" fill="#02B1FF"/>
<circle cx="180.5" cy="65.5" r="9.5" fill="#02C978"/>
<rect x="137" y="201.296" width="42" height="8.00852" rx="4.00426" transform="rotate(-40.5347 137 201.296)" fill="black"/>
<rect x="215.847" y="199" width="42" height="8.00852" rx="4.00426" transform="rotate(46.8948 215.847 199)" fill="black"/>
<rect x="187.847" y="196" width="42" height="8.00852" rx="4.00426" transform="rotate(46.8948 187.847 196)" fill="black"/>
<mask id="mask0_20_358" style="mask-type:luminance" maskUnits="userSpaceOnUse" x="196" y="117" width="73" height="62">
<path d="M196 137.587L251.493 117L268.826 157.671L213.332 178.258L196 137.587Z" fill="white"/>
</mask>
<g mask="url(#mask0_20_358)">
<path d="M250.323 137.818L247.006 139.048C247.006 139.048 244.496 133.195 239.185 132.944C234.915 132.745 232.706 135.416 232.706 135.416C228.366 130.333 221.953 127.958 216.484 129.987C209.362 132.629 206.547 141.717 210.2 150.288C210.518 151.036 210.889 151.747 211.281 152.435C207.201 154.613 205.667 160.27 207.947 165.62L208.836 167.705C211.281 173.442 217.184 176.69 221.952 174.921L260.104 160.767C264.873 158.998 266.774 152.856 264.328 147.118L263.44 145.034C260.994 139.294 255.092 136.049 250.323 137.818Z" fill="#FF3900"/>
</g>
<path d="M182.519 120.728C189.821 108.001 208.179 108.001 215.481 120.728L250.226 181.295C257.493 193.962 248.349 209.75 233.746 209.75H164.254C149.651 209.75 140.507 193.962 147.774 181.295L182.519 120.728Z" fill="#FFCD6C"/>
<circle cx="180" cy="158" r="4" fill="black"/>
<circle cx="210" cy="158" r="4" fill="black"/>
<rect x="232.988" y="184.646" width="42" height="8.00852" rx="4.00426" transform="rotate(38.5197 232.988 184.646)" fill="black"/>
<path d="M95 160.833C112.673 160.833 127 147.103 127 130.167C127 113.23 112.673 99.5 95 99.5C77.3269 99.5 63 113.23 63 130.167C63 147.103 77.3269 160.833 95 160.833Z" stroke="#02B1FF" stroke-width="8" stroke-linecap="round" stroke-linejoin="round"/>
<path d="M135.002 168.494L117.602 151.819" stroke="#02B1FF" stroke-width="8" stroke-linecap="round" stroke-linejoin="round"/>
<path d="M33.219 219.04L27.0613 194.219L51.8826 188.061" stroke="#02C978" stroke-width="9" stroke-linecap="round" stroke-linejoin="round"/>
<path d="M58.0403 212.883L27.0613 194.219" stroke="#02C978" stroke-width="9" stroke-linecap="round" stroke-linejoin="round"/>
</svg>
